<svg width="24" height="24" viewBox="0 0 24 24" fill="none" xmlns="http://www.w3.org/2000/svg">
<g clip-path="url(#clip0_200_1778)">
<path d="M10.125 13.875L15 9" stroke="white" stroke-linecap="round" stroke-linejoin="round"/>
<path d="M20.971 3.9544C21.0071 3.82611 21.0085 3.6905 20.9748 3.56153C20.9411 3.43256 20.8737 3.3149 20.7794 3.22065C20.6852 3.1264 20.5675 3.05897 20.4386 3.0253C20.3096 2.99163 20.174 2.99294 20.0457 3.02909L2.04568 8.48722C1.89873 8.52869 1.76793 8.61403 1.67078 8.73183C1.57363 8.84964 1.51474 8.99429 1.50201 9.14645C1.48927 9.29861 1.52327 9.45104 1.59949 9.58335C1.6757 9.71567 1.79048 9.82157 1.92849 9.8869L10.1251 13.875L14.1132 22.0707C14.1785 22.2087 14.2844 22.3235 14.4167 22.3997C14.549 22.4759 14.7015 22.5099 14.8536 22.4971C15.0058 22.4844 15.1504 22.4255 15.2682 22.3284C15.3861 22.2312 15.4714 22.1004 15.5129 21.9535L20.971 3.9544Z" stroke="white" stroke-linecap="round" stroke-linejoin="round"/>
</g>
<defs>
<clipPath id="clip0_200_1778">
<rect width="24" height="24" fill="white"/>
</clipPath>
</defs>
</svg>
