<svg width="24" height="24" viewBox="0 0 24 24" fill="none" xmlns="http://www.w3.org/2000/svg">
<g clip-path="url(#clip0_179_1750)">
<path d="M15 7.49985L7.18965 15.4395C6.9152 15.7223 6.76301 16.1016 6.76597 16.4956C6.76894 16.8897 6.92682 17.2667 7.20551 17.5452C7.48419 17.8238 7.86128 17.9815 8.2553 17.9843C8.64932 17.9871 9.02861 17.8347 9.31122 17.5602L18.6215 8.12142C19.1842 7.55874 19.5003 6.79559 19.5003 5.99985C19.5003 5.20411 19.1842 4.44096 18.6215 3.87829C18.0589 3.31562 17.2957 2.99951 16.5 2.99951C15.7042 2.99951 14.9411 3.31562 14.3784 3.87829L5.06809 13.318C4.23553 14.1642 3.77108 15.3051 3.77592 16.4923C3.78075 17.6794 4.25447 18.8165 5.0939 19.6559C5.93332 20.4953 7.07044 20.9691 8.25756 20.9739C9.44467 20.9787 10.5856 20.5143 11.4318 19.6817L19.125 11.9999" stroke="white" stroke-linecap="round" stroke-linejoin="round"/>
</g>
<defs>
<clipPath id="clip0_179_1750">
<rect width="24" height="24" fill="white"/>
</clipPath>
</defs>
</svg>
