<svg width="14" height="14" viewBox="0 0 14 14" fill="none" xmlns="http://www.w3.org/2000/svg">
<path d="M4.9253 9.07459L1.05178 7.64724C0.944978 7.60782 0.852821 7.53661 0.78773 7.4432C0.72264 7.34979 0.687744 7.23867 0.687744 7.12482C0.687744 7.01097 0.72264 6.89986 0.78773 6.80645C0.852821 6.71304 0.944978 6.64182 1.05178 6.6024L4.9253 5.17506L6.35264 1.30154C6.39207 1.19473 6.46328 1.10258 6.55669 1.03749C6.6501 0.972396 6.76122 0.9375 6.87507 0.9375C6.98892 0.9375 7.10003 0.972396 7.19344 1.03749C7.28685 1.10258 7.35806 1.19473 7.39749 1.30154L8.82483 5.17506L12.6983 6.6024C12.8052 6.64182 12.8973 6.71304 12.9624 6.80645C13.0275 6.89986 13.0624 7.01097 13.0624 7.12482C13.0624 7.23867 13.0275 7.34979 12.9624 7.4432C12.8973 7.53661 12.8052 7.60782 12.6983 7.64724L8.82483 9.07459L7.39749 12.9481C7.35806 13.0549 7.28685 13.1471 7.19344 13.2122C7.10003 13.2772 6.98892 13.3121 6.87507 13.3121C6.76122 13.3121 6.6501 13.2772 6.55669 13.2122C6.46328 13.1471 6.39207 13.0549 6.35264 12.9481L4.9253 9.07459Z" fill="#828282"/>
</svg>
