<svg width="22" height="27" viewBox="0 0 22 27" fill="none" xmlns="http://www.w3.org/2000/svg">
<g clip-path="url(#clip0_269_3348)">
<path d="M10.205 26.265C9.93922 26.3794 9.69871 26.3156 9.45527 26.2253C9.07291 26.0835 8.78866 25.8123 8.51246 25.525C8.22402 25.2249 7.92626 24.9341 7.6367 24.6352C7.30384 24.2915 6.99445 23.9324 6.86548 23.4501C6.80431 23.2213 6.72962 22.9958 6.65128 22.7723C6.53411 22.4381 6.40292 22.1088 6.28823 21.7737C6.22145 21.5786 6.17804 21.3754 6.11901 21.1774C6.04834 20.9403 5.97079 20.7054 5.89892 20.4687C5.8444 20.2891 5.79782 20.1069 5.74094 19.9281C5.6771 19.7274 5.60266 19.5302 5.53837 19.3296C5.47532 19.1329 5.42012 18.9336 5.35968 18.736C5.33157 18.6441 5.29928 18.5535 5.26877 18.4623C5.22766 18.3396 5.18555 18.2172 5.14545 18.0941C5.07552 17.8794 5.00473 17.6649 4.93809 17.4492C4.84823 17.1583 4.76514 16.8652 4.67321 16.575C4.58665 16.3018 4.4762 16.0353 4.40563 15.7581C4.319 15.4179 4.20069 15.0895 4.28452 14.7117C4.36063 14.3687 4.51377 14.071 4.65897 13.7651C4.88315 13.2926 5.12123 12.827 5.35305 12.3583C5.6402 11.7777 5.92426 11.1956 6.21469 10.6167C6.49642 10.0551 6.78812 9.49865 7.06878 8.93653C7.34132 8.39069 7.60435 7.83998 7.87358 7.29243C8.02735 6.97969 8.17259 6.6618 8.44472 6.42736C8.70134 6.20627 8.97745 6.03625 9.32733 6.03321C10.581 6.02234 11.8348 6.00648 13.0885 6.0044C13.4969 6.00372 13.8761 6.12964 14.2071 6.38063C14.2861 6.44052 14.3602 6.5083 14.4302 6.57891C14.9791 7.13258 15.5193 7.69539 16.0767 8.24011C16.4952 8.64908 16.6738 9.14163 16.6008 9.71283C16.5733 9.92789 16.4483 10.1308 16.3637 10.3376C16.1738 10.8014 15.869 11.2114 15.7539 11.7117C15.6811 12.0279 15.8209 12.2543 16.0247 12.4504C16.4019 12.8132 16.7904 13.164 17.1766 13.5172C17.4181 13.7379 17.6752 13.9424 17.9047 14.1751C18.129 14.4024 18.2692 14.6863 18.3376 15.0038C18.3937 15.2639 18.3801 15.52 18.2722 15.7614C18.2043 15.9135 18.1156 16.0582 18.0208 16.1952C17.8048 16.5071 17.5808 16.8134 17.3572 17.1198C17.1635 17.3852 16.9635 17.6458 16.7706 17.9118C16.5843 18.1688 16.4066 18.4322 16.2195 18.6886C16.0219 18.9592 15.8158 19.2234 15.6169 19.493C15.4771 19.6825 15.3447 19.8775 15.2061 20.068C14.995 20.3582 14.7806 20.6459 14.5693 20.9359C14.278 21.3357 13.9891 21.7371 13.6978 22.1368C13.487 22.4262 13.2712 22.7119 13.0629 23.0032C12.8698 23.2731 12.6862 23.55 12.4937 23.8203C12.3322 24.047 12.1638 24.2687 11.9984 24.4925C11.7977 24.7641 11.5986 25.0371 11.3953 25.3067C11.2558 25.4918 11.1254 25.6875 10.9638 25.851C10.7589 26.0582 10.5177 26.2208 10.205 26.265ZM12.9033 9.86708C13.0187 9.63688 13.1367 9.40796 13.2489 9.17621C13.4612 8.73789 13.6752 8.30028 13.8787 7.85778C13.9945 7.60613 13.835 7.15525 13.5523 7.08324C13.3911 7.04216 13.2255 6.99173 13.0619 6.99191C12.1955 6.9929 11.3292 7.00968 10.4628 7.01868C10.1384 7.02206 9.81391 7.01748 9.48947 7.01977C9.23543 7.02156 9.07106 7.17276 8.95615 7.38012C8.81105 7.64195 8.67865 7.9111 8.54405 8.17879C8.19988 8.86328 7.85629 9.54808 7.51494 10.234C7.31901 10.6277 7.12791 11.0239 6.93464 11.419C6.62105 12.06 6.30801 12.7014 5.99368 13.342C5.76619 13.8057 5.53942 14.2697 5.30753 14.7312C5.18421 14.9765 5.2794 15.3992 5.51376 15.5139C5.64127 15.5764 5.78739 15.633 5.92568 15.6343C6.93055 15.6444 7.93556 15.6395 8.94052 15.6399C9.16066 15.64 9.23296 15.7417 9.183 15.9578C9.11975 16.2313 9.06654 16.5073 9.00718 16.7818C8.91424 17.2116 8.82059 17.6412 8.72571 18.0706C8.6431 18.4445 8.55605 18.8174 8.47535 19.1917C8.41597 19.4672 8.36948 19.7455 8.30659 20.0201C8.24403 20.2932 8.16192 20.5617 8.0995 20.8348C7.97997 21.3578 7.86353 21.8817 7.75567 22.4073C7.71022 22.6288 7.67972 22.8547 7.6614 23.0802C7.64867 23.237 7.82604 23.4938 7.96588 23.5228C8.18853 23.5689 8.41387 23.5787 8.57911 23.3735C8.67536 23.254 8.76515 23.129 8.85436 23.0039C9.09758 22.6628 9.33526 22.3176 9.58217 21.9793C9.79403 21.689 10.0188 21.4084 10.2321 21.1191C10.4839 20.7775 10.7287 20.4307 10.9779 20.0871C11.1853 19.801 11.3953 19.5169 11.6029 19.2309C11.8612 18.8752 12.1159 18.5168 12.3764 18.1628C12.608 17.8481 12.8496 17.5411 13.0792 17.2249C13.4016 16.781 13.7173 16.332 14.035 15.8846C14.2504 15.5814 14.4612 15.2749 14.6798 14.9741C14.9941 14.5416 15.3275 14.1225 15.626 13.6792C15.8238 13.3855 15.595 12.8604 15.2797 12.7878C15.1017 12.7469 14.9169 12.719 14.7348 12.7165C14.1068 12.708 13.4786 12.7099 12.8505 12.7147C12.539 12.717 12.2266 12.7537 11.9162 12.7395C11.6215 12.7259 11.5926 12.6915 11.6493 12.4104C11.6611 12.3516 11.6929 12.296 11.7204 12.2414C12.0055 11.6756 12.2921 11.1104 12.5773 10.5447C12.6868 10.3276 12.794 10.1095 12.9033 9.86708Z" fill="white"/>
</g>
<defs>
<clipPath id="clip0_269_3348">
<rect width="21.2774" height="25.8368" fill="white" transform="translate(0.631348 0.918457)"/>
</clipPath>
</defs>
</svg>
