<svg width="22" height="22" viewBox="0 0 22 22" fill="none" xmlns="http://www.w3.org/2000/svg">
<g clip-path="url(#clip0_269_3328)">
<path d="M10.9555 14.054C12.7916 14.054 14.28 12.5655 14.28 10.7294C14.28 8.89326 12.7916 7.40479 10.9555 7.40479C9.11933 7.40479 7.63086 8.89326 7.63086 10.7294C7.63086 12.5655 9.11933 14.054 10.9555 14.054Z" stroke="#0D0D0D" stroke-width="1.51981" stroke-miterlimit="10"/>
<path d="M14.9446 2.75H6.96558C4.76224 2.75 2.97607 4.53616 2.97607 6.73951V14.7185C2.97607 16.9219 4.76224 18.708 6.96558 18.708H14.9446C17.1479 18.708 18.9341 16.9219 18.9341 14.7185V6.73951C18.9341 4.53616 17.1479 2.75 14.9446 2.75Z" stroke="#0D0D0D" stroke-width="1.51981" stroke-linecap="round" stroke-linejoin="round"/>
<path d="M15.2772 7.40491C15.828 7.40491 16.2745 6.95837 16.2745 6.40753C16.2745 5.8567 15.828 5.41016 15.2772 5.41016C14.7263 5.41016 14.2798 5.8567 14.2798 6.40753C14.2798 6.95837 14.7263 7.40491 15.2772 7.40491Z" fill="#0D0D0D"/>
</g>
<defs>
<clipPath id="clip0_269_3328">
<rect width="21.2774" height="21.2774" fill="white" transform="translate(0.316895 0.0908203)"/>
</clipPath>
</defs>
</svg>
