<svg width="22" height="22" viewBox="0 0 22 22" fill="none" xmlns="http://www.w3.org/2000/svg">
<g clip-path="url(#clip0_269_3341)">
<path d="M10.9556 18.7154C15.3623 18.7154 18.9346 15.143 18.9346 10.7363C18.9346 6.32965 15.3623 2.75732 10.9556 2.75732C6.54889 2.75732 2.97656 6.32965 2.97656 10.7363C2.97656 15.143 6.54889 18.7154 10.9556 18.7154Z" stroke="#0D0D0D" stroke-width="1.51981" stroke-linecap="round" stroke-linejoin="round"/>
<path d="M10.2905 10.0718C10.4669 10.0718 10.636 10.1418 10.7607 10.2665C10.8854 10.3912 10.9554 10.5603 10.9554 10.7367V14.0613C10.9554 14.2376 11.0255 14.4068 11.1502 14.5315C11.2749 14.6562 11.444 14.7262 11.6204 14.7262" stroke="#0D0D0D" stroke-width="1.51981" stroke-linecap="round" stroke-linejoin="round"/>
<path d="M10.6229 8.07727C11.1737 8.07727 11.6202 7.63073 11.6202 7.0799C11.6202 6.52906 11.1737 6.08252 10.6229 6.08252C10.072 6.08252 9.62549 6.52906 9.62549 7.0799C9.62549 7.63073 10.072 8.07727 10.6229 8.07727Z" fill="#0D0D0D"/>
</g>
<defs>
<clipPath id="clip0_269_3341">
<rect width="21.2774" height="21.2774" fill="white" transform="translate(0.317383 0.0981445)"/>
</clipPath>
</defs>
</svg>
