<svg width="105" height="44" viewBox="0 0 105 44" fill="none" xmlns="http://www.w3.org/2000/svg">
<path d="M76.2518 20.8455C75.5981 21.6056 74.9767 22.3305 74.359 23.0586C73.7971 23.7209 73.2416 24.3887 72.6789 25.0503C71.7716 26.1173 70.8607 27.1812 69.9446 28.2544C70.1622 28.479 70.3973 28.3833 70.6026 28.3837C73.7769 28.3905 76.9513 28.3883 80.1256 28.3887C80.9875 28.3888 81.124 28.5351 81.1208 29.401C81.1159 30.6972 81.1236 31.9934 81.1207 33.2896C81.119 34.017 80.9404 34.2005 80.2176 34.2007C72.6394 34.2028 65.0612 34.2026 57.483 34.2008C56.9531 34.2007 56.8756 34.1475 56.7337 33.6427C56.5727 33.0701 56.4365 32.4905 56.2685 31.8318C56.1099 31.9414 55.9599 32.016 55.8466 32.1277C54.4077 33.5464 52.6426 34.3146 50.6901 34.6836C50.0833 34.7983 49.4499 34.8926 48.8405 34.8452C47.8298 34.7667 46.7991 34.6704 45.8294 34.3959C43.4159 33.7128 41.6307 32.2233 40.4321 29.9913C39.8797 28.9628 39.6264 27.8577 39.3347 26.76C39.1886 26.2102 39.1839 25.613 39.181 25.0369C39.1667 22.2 39.1745 19.363 39.1745 16.3581C39.0156 16.6034 38.921 16.7083 38.8721 16.8314C38.2382 18.4262 37.6136 20.0247 36.9809 21.62C36.5753 22.6428 36.1519 23.6586 35.7517 24.6834C35.2882 25.8703 34.8549 27.0691 34.3843 28.253C33.6595 30.0766 32.9087 31.8898 32.179 33.7114C31.5397 35.3075 30.9797 36.9335 30.1937 38.4718C29.3583 40.1065 28.2277 41.437 26.5182 42.1593C25.7952 42.4647 25.0039 42.6527 24.2249 42.7722C22.5051 43.0359 20.7651 43.0344 19.028 43.0108C18.4438 43.0028 18.2044 42.7687 18.2079 42.1978C18.217 40.7011 18.2298 39.2043 18.2533 37.7077C18.257 37.4726 18.3241 37.2384 18.3667 36.9729C18.8339 36.9729 19.2576 36.9947 19.6783 36.9686C20.6763 36.9067 21.6835 36.8872 22.6669 36.7274C23.5685 36.5808 24.3184 36.0978 24.7458 35.2338C24.8633 34.9962 24.9468 34.7419 25.0618 34.503C25.4642 33.6673 25.4249 32.9122 24.9387 32.0697C24.3314 31.0175 23.9059 29.8607 23.3986 28.7506C22.9943 27.8657 22.5865 26.9824 22.1776 26.0996C21.4797 24.5925 20.7744 23.0887 20.0822 21.5789C19.5393 20.3947 19.0161 19.2015 18.4749 18.0164C18.2634 17.5532 18.0269 17.1014 17.7864 16.6131C15.7359 16.6131 13.6669 16.6131 11.6346 16.6131C11.6346 16.9249 11.6346 17.2073 11.6346 17.4897C11.6346 22.6983 11.6346 27.9069 11.6345 33.1155C11.6345 33.2273 11.6387 33.3393 11.6337 33.4508C11.6095 33.9849 11.4333 34.1937 10.9138 34.1969C9.0137 34.2088 7.11349 34.2068 5.21339 34.198C4.79529 34.1961 4.6861 34.0961 4.66734 33.6898C4.64888 33.2901 4.7001 32.8878 4.69819 32.4867C4.68748 30.2538 4.66278 28.0209 4.6565 25.788C4.64881 23.0608 4.6533 20.3335 4.65632 17.6062C4.65667 17.2991 4.68162 16.9919 4.69836 16.6121C3.18478 16.6121 1.72213 16.6121 0.31998 16.6121C-0.025003 16.26 -0.00802199 15.8986 0.00570858 15.5427C0.0305497 14.8985 0.0862661 14.2547 0.0889926 13.6106C0.0921693 12.8599 0.0526889 12.109 0.0310491 11.3582C0.0224767 11.0608 0.201654 10.914 0.461331 10.8681C0.634907 10.8374 0.817957 10.8593 0.996765 10.8592C2.19948 10.8589 3.40219 10.8591 4.70038 10.8591C4.70038 10.569 4.69048 10.3316 4.7021 10.0953C4.75124 9.09594 4.65437 8.09901 4.80933 7.09285C4.95015 6.17853 5.24588 5.33816 5.6522 4.53517C6.25663 3.34066 7.1533 2.39717 8.32083 1.72355C9.11596 1.26479 9.97759 0.966857 10.8713 0.80844C12.7206 0.480601 14.5947 0.521965 16.4643 0.528118C16.8443 0.529371 17.2246 0.52007 17.6043 0.529694C18.2029 0.544862 18.5049 0.794128 18.5131 1.36416C18.5336 2.7717 18.5268 4.1798 18.515 5.58754C18.5114 6.0078 18.3252 6.15372 17.7943 6.16156C16.8779 6.17509 15.961 6.17762 15.0447 6.16285C13.1858 6.13288 11.8143 7.41146 11.5024 9.12008C11.4627 9.33742 11.4231 9.55706 11.4131 9.77698C11.398 10.1082 11.4091 10.4405 11.4091 10.8287C15.194 10.8287 18.9391 10.8287 22.7574 10.8287C24.7465 15.4526 26.7264 20.0552 28.7529 24.7661C28.8707 24.5432 28.9511 24.4269 28.9974 24.2983C29.9063 21.7719 30.8141 19.2451 31.7162 16.7162C32.3315 14.9912 32.9377 13.2629 33.548 11.5361C33.7357 11.0051 33.9039 10.861 34.3951 10.8606C38.1283 10.8578 41.8616 10.859 45.5948 10.8605C45.6824 10.8605 45.7699 10.8785 45.9352 10.8966C45.963 11.1258 46.0143 11.3591 46.0162 11.5929C46.0503 15.8139 46.0468 20.0355 46.1261 24.2556C46.1514 25.5998 46.5207 26.8819 47.6365 27.809C48.1056 28.1988 48.6284 28.469 49.2242 28.5821C50.5259 28.8291 51.7887 28.7686 52.9307 28.0058C53.9957 27.2944 54.5919 26.2908 54.8917 25.0405C55.1298 24.0477 55.1312 23.0582 55.1339 22.0609C55.1433 18.663 55.1375 15.2651 55.1377 11.8672C55.1377 11.6884 55.1277 11.5084 55.1444 11.3311C55.1734 11.0207 55.3305 10.838 55.6679 10.8589C55.7793 10.8657 55.8914 10.8592 56.0032 10.8592C64.0061 10.8591 72.0091 10.8592 80.012 10.8592C80.1898 10.8592 80.3675 10.8592 80.6396 10.8592C80.6822 11.1188 80.7553 11.3663 80.758 11.6145C80.7704 12.7768 80.7544 13.9394 80.7695 15.1017C80.7735 15.4105 80.6989 15.6558 80.4945 15.8894C79.8357 16.6425 79.1915 17.4085 78.5417 18.1696C77.7897 19.0503 77.0378 19.9309 76.2518 20.8455ZM69.1137 19.6727C69.9016 18.646 70.8589 17.7568 71.6951 16.6333C68.4069 16.6333 65.2547 16.6333 62.0782 16.6333C62.0782 20.317 62.0782 23.9499 62.0782 27.6294C62.4477 27.5124 62.6288 27.2307 62.8378 26.9834C63.4848 26.2178 64.1251 25.4463 64.7805 24.6879C65.7559 23.559 66.7437 22.4409 67.7227 21.3151C68.1726 20.7977 68.614 20.2729 69.1137 19.6727Z" fill="url(#paint0_linear_179_1680)"/>
<path d="M100.861 26.6861C102.056 26.7353 103.194 26.5669 104.369 26.8287C104.35 27.0306 104.383 27.2253 104.31 27.3651C103.922 28.1095 103.601 28.8929 103.025 29.5304C102.627 29.9723 102.278 30.4593 101.879 30.9C100.786 32.1045 99.477 33.0193 97.9796 33.6398C96.5256 34.2423 95.0375 34.7161 93.4272 34.7053C92.6562 34.7001 91.8863 34.7458 91.1115 34.7177C89.9 34.6739 88.7404 34.4192 87.6145 34.0063C86.2117 33.4918 84.9268 32.7866 83.792 31.7781C82.6404 30.7549 81.7118 29.5764 81.0697 28.1999C80.6539 27.3086 80.3436 26.3491 80.1291 25.3882C79.9177 24.4414 79.7976 23.4541 79.801 22.4852C79.8046 21.4934 79.9587 20.4938 80.1327 19.5128C80.4251 17.8648 81.1538 16.3799 82.1139 15.0307C83.161 13.5594 84.5769 12.4988 86.1698 11.6515C87.3173 11.0412 88.5369 10.6622 89.7977 10.4349C90.951 10.2269 92.1256 10.0734 93.3023 10.1955C94.1131 10.2798 94.9203 10.4246 95.7197 10.5882C96.8988 10.8295 97.9776 11.3359 99.0232 11.9206C100.586 12.7944 101.836 13.9926 102.779 15.511C103.058 15.9604 103.334 16.4154 103.562 16.8916C104.086 17.988 104.431 19.1369 104.664 20.3382C104.886 21.4817 105.007 22.6197 105 23.7781C104.995 24.526 104.894 24.6165 104.156 24.549C104.001 24.5348 103.844 24.5426 103.687 24.5426C98.3216 24.5425 92.956 24.5422 87.5903 24.5442C87.3296 24.5443 87.0688 24.5641 86.7797 24.5759C87.0363 26.3467 88.0112 27.5707 89.4184 28.4123C90.0347 28.7809 90.8225 28.8873 91.5473 29.0441C92.7486 29.3039 93.908 28.9913 95.0506 28.6605C95.9264 28.4069 96.6234 27.8529 97.2163 27.1811C97.5201 26.837 97.8374 26.6568 98.3126 26.6765C99.1384 26.7108 99.9667 26.6861 100.861 26.6861ZM92.4779 15.9138C91.4258 15.8767 90.4357 16.0792 89.4919 16.574C88.6606 17.0098 88.0212 17.6415 87.5082 18.3949C87.1758 18.8829 86.9105 19.4298 86.877 20.1151C87.6045 20.1151 88.3133 20.1152 89.022 20.1151C91.0539 20.115 93.0857 20.1149 95.1175 20.1148C95.944 20.1148 96.7707 20.1238 97.5969 20.1087C97.7901 20.1052 97.9819 20.0207 98.2401 19.9573C97.9225 19.3317 97.6759 18.792 97.3822 18.2793C96.8773 17.3979 96.0757 16.7986 95.1921 16.3933C94.3983 16.0292 93.5177 15.8124 92.4779 15.9138Z" fill="url(#paint1_linear_179_1680)"/>
<defs>
<linearGradient id="paint0_linear_179_1680" x1="73.8241" y1="43.0206" x2="31.1759" y2="0.523194" gradientUnits="userSpaceOnUse">
<stop stop-color="#DD3305"/>
<stop offset="0.5" stop-color="#FF6B3A"/>
<stop offset="1" stop-color="#FFB347"/>
</linearGradient>
<linearGradient id="paint1_linear_179_1680" x1="73.8241" y1="43.0206" x2="31.1759" y2="0.523194" gradientUnits="userSpaceOnUse">
<stop stop-color="#DD3305"/>
<stop offset="0.5" stop-color="#FF6B3A"/>
<stop offset="1" stop-color="#FFB347"/>
</linearGradient>
</defs>
</svg>
