<svg width="15" height="21" viewBox="0 0 15 21" fill="none" xmlns="http://www.w3.org/2000/svg">
<path d="M6.32251 20.9364C6.04007 21.0546 5.78446 20.9887 5.52574 20.8954C5.11938 20.7488 4.81729 20.4686 4.52376 20.1717C4.21721 19.8616 3.90077 19.5611 3.59303 19.2522C3.23928 18.8971 2.91047 18.526 2.77341 18.0276C2.70839 17.7912 2.62902 17.5581 2.54577 17.3272C2.42124 16.9818 2.28182 16.6416 2.15993 16.2953C2.08896 16.0937 2.04283 15.8837 1.98009 15.6791C1.90498 15.4341 1.82256 15.1913 1.74619 14.9467C1.68824 14.7611 1.63873 14.5729 1.57829 14.3882C1.51044 14.1808 1.43133 13.9769 1.363 13.7696C1.296 13.5664 1.23733 13.3604 1.1731 13.1563C1.14323 13.0613 1.10891 12.9677 1.07648 12.8735C1.03279 12.7466 0.988038 12.6201 0.945426 12.4929C0.87111 12.2711 0.795874 12.0495 0.725048 11.8265C0.629546 11.5259 0.541249 11.2231 0.44354 10.9232C0.351551 10.6408 0.234171 10.3655 0.159173 10.0791C0.0671002 9.72753 -0.058627 9.38809 0.0304554 8.99775C0.111342 8.64332 0.274101 8.33569 0.428414 8.01952C0.666667 7.53135 0.919686 7.05017 1.16605 6.56584C1.47123 5.9659 1.77312 5.36433 2.08177 4.76613C2.38119 4.18582 2.6912 3.61081 2.98947 3.02994C3.27911 2.46589 3.55865 1.89681 3.84478 1.33099C4.0082 1.00783 4.16255 0.679336 4.45177 0.437069C4.72449 0.208612 5.01794 0.032915 5.38977 0.0297807C6.72218 0.018548 8.05457 0.00215782 9.387 2.82701e-06C9.821 -0.000699398 10.224 0.129423 10.5758 0.388786C10.6598 0.450677 10.7385 0.520715 10.8129 0.593678C11.3963 1.16582 11.9703 1.74739 12.5627 2.31028C13.0075 2.7329 13.1973 3.24187 13.1198 3.83213C13.0906 4.05436 12.9577 4.26409 12.8677 4.47774C12.666 4.95704 12.342 5.38065 12.2197 5.89764C12.1423 6.22441 12.2909 6.45836 12.5075 6.66098C12.9084 7.0359 13.3212 7.39844 13.7317 7.76334C13.9883 7.9915 14.2615 8.20282 14.5055 8.4432C14.7438 8.67809 14.8928 8.97147 14.9656 9.29954C15.0252 9.56835 15.0107 9.83302 14.8961 10.0825C14.8239 10.2396 14.7296 10.3891 14.6288 10.5307C14.3993 10.853 14.1613 11.1695 13.9236 11.4862C13.7178 11.7604 13.5052 12.0297 13.3002 12.3046C13.1022 12.5701 12.9134 12.8424 12.7145 13.1073C12.5045 13.3869 12.2855 13.6599 12.0741 13.9386C11.9255 14.1344 11.7848 14.3359 11.6376 14.5327C11.4132 14.8326 11.1853 15.1299 10.9607 15.4296C10.6512 15.8426 10.3441 16.2574 10.0346 16.6705C9.8105 16.9695 9.58118 17.2648 9.35977 17.5657C9.15456 17.8447 8.95947 18.1308 8.75483 18.4101C8.58321 18.6444 8.40431 18.8735 8.22851 19.1048C8.01515 19.3854 7.8036 19.6675 7.58756 19.9462C7.4393 20.1374 7.30067 20.3396 7.12894 20.5085C6.91123 20.7227 6.65484 20.8907 6.32251 20.9364ZM9.19021 3.99152C9.31284 3.75364 9.4382 3.51709 9.5575 3.27761C9.78313 2.82467 10.0105 2.37247 10.2268 1.9152C10.3498 1.65516 10.1803 1.18925 9.87994 1.11483C9.70859 1.07238 9.53256 1.02027 9.35869 1.02046C8.43797 1.02148 7.51727 1.03882 6.59654 1.04812C6.25176 1.05161 5.9069 1.04688 5.56209 1.04924C5.2921 1.05109 5.11742 1.20733 4.99529 1.42161C4.84109 1.69218 4.70038 1.9703 4.55733 2.24692C4.19156 2.95424 3.8264 3.66188 3.46363 4.3707C3.2554 4.77756 3.05231 5.18697 2.84691 5.59523C2.51364 6.25764 2.18095 6.92034 1.8469 7.58236C1.60512 8.06149 1.36412 8.54104 1.11767 9.01785C0.986617 9.27141 1.08778 9.70814 1.33685 9.82671C1.47236 9.89123 1.62765 9.94972 1.77463 9.95115C2.84256 9.96156 3.91065 9.95649 4.97869 9.95694C5.21264 9.95704 5.28948 10.0621 5.23638 10.2854C5.16916 10.5681 5.11261 10.8532 5.04953 11.1368C4.95076 11.581 4.85123 12.025 4.7504 12.4687C4.6626 12.8551 4.57009 13.2404 4.48432 13.6272C4.42122 13.9118 4.3718 14.1995 4.30497 14.4832C4.23848 14.7654 4.15121 15.0428 4.08488 15.3251C3.95785 15.8655 3.8341 16.4069 3.71947 16.95C3.67117 17.1789 3.63876 17.4124 3.61929 17.6454C3.60575 17.8074 3.79426 18.0727 3.94287 18.1027C4.1795 18.1504 4.41898 18.1605 4.59459 17.9485C4.69688 17.825 4.79231 17.6958 4.88711 17.5666C5.1456 17.2141 5.3982 16.8574 5.66061 16.5078C5.88577 16.2078 6.12466 15.9178 6.35128 15.6189C6.61889 15.2659 6.8791 14.9075 7.1439 14.5524C7.36435 14.2568 7.58753 13.9632 7.80816 13.6677C8.08265 13.3001 8.35332 12.9297 8.63021 12.5639C8.8763 12.2388 9.13316 11.9215 9.37711 11.5948C9.71974 11.136 10.0552 10.6721 10.393 10.2098C10.6218 9.89648 10.8459 9.5797 11.0782 9.26888C11.4122 8.82192 11.7666 8.38888 12.0838 7.93082C12.294 7.62735 12.0508 7.08467 11.7157 7.0097C11.5266 6.96736 11.3302 6.93855 11.1366 6.936C10.4692 6.92719 9.8016 6.92913 9.13412 6.93408C8.80298 6.93654 8.47105 6.97445 8.14116 6.95971C7.82789 6.94571 7.79718 6.91014 7.85745 6.61972C7.87007 6.55891 7.90379 6.50143 7.93301 6.44504C8.23605 5.86033 8.54058 5.27636 8.84377 4.69173C8.96008 4.46745 9.07405 4.242 9.19021 3.99152Z" fill="url(#paint0_linear_269_3389)"/>
<defs>
<linearGradient id="paint0_linear_269_3389" x1="15" y1="18.0445" x2="0.255738" y2="2.70963" gradientUnits="userSpaceOnUse">
<stop stop-color="#DD3305"/>
<stop offset="0.5" stop-color="#FF6B3A"/>
<stop offset="1" stop-color="#FFB347"/>
</linearGradient>
</defs>
</svg>
