<svg width="42" height="42" viewBox="0 0 42 42" fill="none" xmlns="http://www.w3.org/2000/svg">
<path d="M13.8256 28.1745L4.78736 24.8441C4.53814 24.7521 4.32311 24.5859 4.17123 24.3679C4.01935 24.15 3.93793 23.8907 3.93793 23.6251C3.93793 23.3594 4.01935 23.1002 4.17123 22.8822C4.32311 22.6642 4.53814 22.4981 4.78736 22.4061L13.8256 19.0756L17.156 10.0374C17.248 9.7882 17.4142 9.57317 17.6321 9.42129C17.8501 9.26941 18.1094 9.18799 18.375 9.18799C18.6407 9.18799 18.8999 9.26941 19.1179 9.42129C19.3358 9.57317 19.502 9.7882 19.594 10.0374L22.9245 19.0756L31.9627 22.4061C32.2119 22.4981 32.4269 22.6642 32.5788 22.8822C32.7307 23.1002 32.8121 23.3594 32.8121 23.6251C32.8121 23.8907 32.7307 24.15 32.5788 24.3679C32.4269 24.5859 32.2119 24.7521 31.9627 24.8441L22.9245 28.1745L19.594 37.2127C19.502 37.4619 19.3358 37.677 19.1179 37.8289C18.8999 37.9807 18.6407 38.0622 18.375 38.0622C18.1094 38.0622 17.8501 37.9807 17.6321 37.8289C17.4142 37.677 17.248 37.4619 17.156 37.2127L13.8256 28.1745Z" fill="white"/>
<path d="M27.4244 11.2332L24.2942 9.96439C24.2079 9.92934 24.1334 9.86604 24.0808 9.78301C24.0282 9.69998 24 9.6012 24 9.5C24 9.3988 24.0282 9.30002 24.0808 9.21699C24.1334 9.13396 24.2079 9.07066 24.2942 9.03561L27.4244 7.76682L28.5778 4.3236C28.6097 4.22866 28.6672 4.14674 28.7427 4.08888C28.8182 4.03102 28.908 4 29 4C29.092 4 29.1818 4.03102 29.2573 4.08888C29.3328 4.14674 29.3903 4.22866 29.4222 4.3236L30.5756 7.76682L33.7058 9.03561C33.7921 9.07066 33.8666 9.13396 33.9192 9.21699C33.9718 9.30002 34 9.3988 34 9.5C34 9.6012 33.9718 9.69998 33.9192 9.78301C33.8666 9.86604 33.7921 9.92934 33.7058 9.96439L30.5756 11.2332L29.4222 14.6764C29.3903 14.7713 29.3328 14.8533 29.2573 14.9111C29.1818 14.969 29.092 15 29 15C28.908 15 28.8182 14.969 28.7427 14.9111C28.6672 14.8533 28.6097 14.7713 28.5778 14.6764L27.4244 11.2332Z" fill="white"/>
<path d="M33.7122 18.2878L32.1471 17.7111C32.1039 17.6952 32.0667 17.6664 32.0404 17.6286C32.0141 17.5909 32 17.546 32 17.5C32 17.454 32.0141 17.4091 32.0404 17.3714C32.0667 17.3336 32.1039 17.3048 32.1471 17.2889L33.7122 16.7122L34.2889 15.1471C34.3048 15.1039 34.3336 15.0667 34.3714 15.0404C34.4091 15.0141 34.454 15 34.5 15C34.546 15 34.5909 15.0141 34.6286 15.0404C34.6664 15.0667 34.6952 15.1039 34.7111 15.1471L35.2878 16.7122L36.8529 17.2889C36.8961 17.3048 36.9333 17.3336 36.9596 17.3714C36.9859 17.4091 37 17.454 37 17.5C37 17.546 36.9859 17.5909 36.9596 17.6286C36.9333 17.6664 36.8961 17.6952 36.8529 17.7111L35.2878 18.2878L34.7111 19.8529C34.6952 19.8961 34.6664 19.9333 34.6286 19.9596C34.5909 19.9859 34.546 20 34.5 20C34.454 20 34.4091 19.9859 34.3714 19.9596C34.3336 19.9333 34.3048 19.8961 34.2889 19.8529L33.7122 18.2878Z" fill="white"/>
</svg>
