<svg width="30" height="30" viewBox="0 0 30 30" fill="none" xmlns="http://www.w3.org/2000/svg">
<path d="M10.8256 19.1745L1.78736 15.8441C1.53814 15.7521 1.32311 15.5859 1.17123 15.3679C1.01935 15.15 0.937927 14.8907 0.937927 14.6251C0.937927 14.3594 1.01935 14.1002 1.17123 13.8822C1.32311 13.6642 1.53814 13.4981 1.78736 13.4061L10.8256 10.0756L14.156 1.03742C14.248 0.7882 14.4142 0.573167 14.6321 0.42129C14.8501 0.269412 15.1094 0.187988 15.375 0.187988C15.6407 0.187988 15.8999 0.269412 16.1179 0.42129C16.3358 0.573167 16.502 0.7882 16.594 1.03742L19.9245 10.0756L28.9627 13.4061C29.2119 13.4981 29.4269 13.6642 29.5788 13.8822C29.7307 14.1002 29.8121 14.3594 29.8121 14.6251C29.8121 14.8907 29.7307 15.15 29.5788 15.3679C29.4269 15.5859 29.2119 15.7521 28.9627 15.8441L19.9245 19.1745L16.594 28.2127C16.502 28.4619 16.3358 28.677 16.1179 28.8289C15.8999 28.9807 15.6407 29.0622 15.375 29.0622C15.1094 29.0622 14.8501 28.9807 14.6321 28.8289C14.4142 28.677 14.248 28.4619 14.156 28.2127L10.8256 19.1745Z" fill="white"/>
</svg>
