<svg width="134" height="40" viewBox="0 0 134 40" fill="none" xmlns="http://www.w3.org/2000/svg">
<path d="M18.9173 1.6665C8.79206 1.6665 0.583984 9.87462 0.583984 19.9998C0.583984 30.1251 8.79206 38.3332 18.9173 38.3332C28.0015 38.3332 35.5425 31.7262 36.9972 23.0554H36.8656C35.5088 28.3269 30.7235 32.2221 25.0284 32.2221C18.2783 32.2221 12.8062 26.75 12.8062 19.9998C12.8062 13.2497 18.2783 7.77761 25.0284 7.77761C30.7235 7.77761 35.5088 11.6727 36.8656 16.9443H36.9972C35.5425 8.27349 28.0015 1.6665 18.9173 1.6665Z" fill="#828282"/>
<path d="M0.583984 19.9998C0.583984 9.87462 8.7921 1.6665 18.9173 1.6665C28.0015 1.6665 35.5425 8.27349 36.9972 16.9443H24.6434C23.2866 11.6728 18.5013 7.77761 12.8062 7.77761C6.05606 7.77761 0.583984 13.2497 0.583984 19.9998Z" fill="#828282"/>
<path d="M0.583984 19.9997C0.583984 30.1249 8.7921 38.333 18.9173 38.333C28.0015 38.333 35.5425 31.726 36.9972 23.0552H24.6434C23.2866 28.3268 18.5013 32.2219 12.8062 32.2219C6.05606 32.2219 0.583984 26.7498 0.583984 19.9997Z" fill="#828282"/>
<path d="M63.4494 17.0895C62.9273 13.3193 60.0273 11.1318 56.2654 11.1318C51.8324 11.1318 48.4932 14.3634 48.4932 19.8487C48.4932 25.3257 51.791 28.5655 56.2654 28.5655C60.3007 28.5655 62.9771 25.9555 63.4494 22.7156L60.3504 22.6991C59.961 24.6877 58.3369 25.8063 56.3068 25.8063C53.5559 25.8063 51.5838 23.7431 51.5838 19.8487C51.5838 16.0206 53.5393 13.8911 56.3151 13.8911C58.3783 13.8911 59.9941 15.0594 60.3504 17.0895H63.4494Z" fill="#0D0D0D"/>
<path d="M69.7944 28.5904C71.7913 28.5904 72.9845 27.6541 73.5313 26.5852H73.6308V28.3335H76.5143V19.8155C76.5143 16.4514 73.7716 15.4405 71.3438 15.4405C68.6675 15.4405 66.6125 16.6337 65.9497 18.9538L68.7503 19.3515C69.0486 18.4815 69.8938 17.7358 71.3604 17.7358C72.7524 17.7358 73.5148 18.4484 73.5148 19.6995V19.7493C73.5148 20.611 72.6116 20.6524 70.3661 20.8927C67.8969 21.1579 65.5354 21.8953 65.5354 24.7623C65.5354 27.2647 67.3666 28.5904 69.7944 28.5904ZM70.5732 26.3863C69.3221 26.3863 68.4272 25.8146 68.4272 24.7126C68.4272 23.5608 69.4298 23.0802 70.7721 22.8896C71.5593 22.7819 73.1336 22.5831 73.523 22.2682V23.768C73.523 25.1849 72.3796 26.3863 70.5732 26.3863Z" fill="#0D0D0D"/>
<path d="M85.8857 15.6063H83.3751V12.557H80.3756V15.6063H78.5692V17.9263H80.3756V25.0026C80.359 27.3972 82.099 28.5738 84.3528 28.5075C85.2063 28.4827 85.7946 28.317 86.1177 28.2093L85.6123 25.8643C85.4466 25.9057 85.1068 25.9803 84.734 25.9803C83.98 25.9803 83.3751 25.7152 83.3751 24.5054V17.9263H85.8857V15.6063Z" fill="#0D0D0D"/>
<path d="M92.0567 28.5904C94.0536 28.5904 95.2468 27.6541 95.7937 26.5852H95.8931V28.3335H98.7766V19.8155C98.7766 16.4514 96.034 15.4405 93.6062 15.4405C90.9298 15.4405 88.8749 16.6337 88.212 18.9538L91.0127 19.3515C91.311 18.4815 92.1562 17.7358 93.6228 17.7358C95.0148 17.7358 95.7771 18.4484 95.7771 19.6995V19.7493C95.7771 20.611 94.874 20.6524 92.6285 20.8927C90.1592 21.1579 87.7977 21.8953 87.7977 24.7623C87.7977 27.2647 89.6289 28.5904 92.0567 28.5904ZM92.8356 26.3863C91.5844 26.3863 90.6895 25.8146 90.6895 24.7126C90.6895 23.5608 91.6921 23.0802 93.0345 22.8896C93.8216 22.7819 95.396 22.5831 95.7854 22.2682V23.768C95.7854 25.1849 94.6419 26.3863 92.8356 26.3863Z" fill="#0D0D0D"/>
<path d="M104.792 11.3638H101.793V28.3335H104.792V11.3638Z" fill="#0D0D0D"/>
<path d="M113.428 28.5821C117.157 28.5821 119.527 25.9555 119.527 22.0196C119.527 18.0755 117.157 15.4405 113.428 15.4405C109.7 15.4405 107.33 18.0755 107.33 22.0196C107.33 25.9555 109.7 28.5821 113.428 28.5821ZM113.445 26.1792C111.382 26.1792 110.371 24.3397 110.371 22.0113C110.371 19.683 111.382 17.8186 113.445 17.8186C115.475 17.8186 116.486 19.683 116.486 22.0113C116.486 24.3397 115.475 26.1792 113.445 26.1792Z" fill="#0D0D0D"/>
<path d="M127.608 33.3714C131.046 33.3714 133.582 31.7971 133.582 28.5407V15.6063H130.624V17.7109H130.458C130.002 16.7912 129.049 15.4405 126.804 15.4405C123.862 15.4405 121.551 17.7441 121.551 21.9285C121.551 26.0798 123.862 28.1513 126.796 28.1513C128.975 28.1513 129.994 26.9829 130.458 26.0466H130.607V28.4578C130.607 30.3305 129.364 31.1011 127.657 31.1011C125.851 31.1011 125.056 30.2476 124.691 29.5019L121.99 30.1565C122.537 31.9379 124.368 33.3714 127.608 33.3714ZM127.633 25.798C125.652 25.798 124.608 24.2568 124.608 21.9119C124.608 19.6001 125.636 17.9015 127.633 17.9015C129.563 17.9015 130.624 19.5007 130.624 21.9119C130.624 24.3397 129.547 25.798 127.633 25.798Z" fill="#0D0D0D"/>
</svg>
