<svg width="184" height="48" viewBox="0 0 184 48" fill="none" xmlns="http://www.w3.org/2000/svg">
<path d="M16.2981 33.4284C24.9769 33.4284 32.0124 26.3929 32.0124 17.7141C32.0124 16.7306 31.922 15.7681 31.7492 14.8345C30.8156 14.6617 29.8531 14.5713 28.8696 14.5713C20.1908 14.5713 13.1553 21.6068 13.1553 30.2856C13.1553 31.2692 13.2456 32.2317 13.4185 33.1652C14.3521 33.3381 15.3145 33.4284 16.2981 33.4284Z" fill="#828282"/>
<path fill-rule="evenodd" clip-rule="evenodd" d="M13.4187 33.1653C6.11516 31.8127 0.583984 25.4095 0.583984 17.7143C0.583984 9.03553 7.61951 2 16.2983 2C23.9934 2 30.3967 7.53118 31.7493 14.8347C30.8158 14.6618 29.8533 14.5714 28.8697 14.5714C20.1909 14.5714 13.1554 21.607 13.1554 30.2857C13.1554 31.2693 13.2458 32.2318 13.4187 33.1653Z" fill="#828282"/>
<path fill-rule="evenodd" clip-rule="evenodd" d="M16.2986 33.4284C24.9773 33.4284 32.0128 26.3928 32.0128 17.7141C32.0128 16.7305 31.9225 15.768 31.7496 14.8345C39.0531 16.187 44.5843 22.5903 44.5843 30.2855C44.5843 38.9643 37.5487 45.9998 28.87 45.9998C21.1748 45.9998 14.7715 40.4686 13.4189 33.1651C14.3525 33.338 15.315 33.4284 16.2986 33.4284Z" fill="#828282"/>
<path d="M74.8124 28.9042C74.2524 30.7148 73.2724 32.0682 71.8724 32.9642C70.4724 33.8415 68.839 34.2802 66.9724 34.2802C65.143 34.2802 63.5564 33.8975 62.2124 33.1322C60.887 32.3668 59.8604 31.2748 59.1324 29.8562C58.423 28.4375 58.0684 26.7388 58.0684 24.7602C58.0684 22.7815 58.4324 21.0828 59.1604 19.6642C59.8884 18.2455 60.915 17.1535 62.2404 16.3882C63.5657 15.6228 65.1244 15.2402 66.9164 15.2402C68.8017 15.2402 70.4164 15.6415 71.7604 16.4442C73.123 17.2282 74.0564 18.4228 74.5604 20.0282L71.0604 21.5122C70.743 20.3922 70.2577 19.5988 69.6044 19.1322C68.951 18.6468 68.111 18.4042 67.0844 18.4042C65.5537 18.4042 64.331 18.9548 63.4164 20.0562C62.5204 21.1388 62.0724 22.7068 62.0724 24.7602C62.0724 26.7948 62.5017 28.3628 63.3604 29.4642C64.219 30.5655 65.4604 31.1162 67.0844 31.1162C68.0924 31.1162 68.9604 30.8455 69.6884 30.3042C70.435 29.7628 70.9577 28.9415 71.2564 27.8402L74.8124 28.9042Z" fill="#0D0D0D"/>
<path d="M79.6456 17.9842C78.059 17.9842 77.2656 17.3028 77.2656 15.9402C77.2656 14.5588 78.059 13.8682 79.6456 13.8682C81.2323 13.8682 82.0256 14.5588 82.0256 15.9402C82.0256 17.3028 81.2323 17.9842 79.6456 17.9842ZM81.5496 20.0002V34.0002H77.7136V20.0002H81.5496Z" fill="#0D0D0D"/>
<path d="M85.616 34.0002V20.0002H88.948L89.2 22.7442C89.5546 21.7922 90.0866 21.0548 90.796 20.5322C91.524 19.9908 92.4386 19.7202 93.54 19.7202C94.1933 19.7202 94.6973 19.8228 95.052 20.0282L94.604 23.2482C94.4173 23.1922 94.184 23.1455 93.904 23.1082C93.6426 23.0522 93.2973 23.0242 92.868 23.0242C92.2893 23.0242 91.7386 23.1642 91.216 23.4442C90.712 23.7055 90.292 24.1162 89.956 24.6762C89.62 25.2175 89.452 25.9082 89.452 26.7482V34.0002H85.616Z" fill="#0D0D0D"/>
<path d="M103.511 19.7202C105.378 19.7202 106.824 20.1215 107.851 20.9242C108.896 21.7268 109.587 22.6975 109.923 23.8362L106.339 25.1242C105.966 23.4255 105.042 22.5762 103.567 22.5762C102.503 22.5762 101.672 22.9495 101.075 23.6962C100.496 24.4428 100.207 25.5535 100.207 27.0282C100.207 28.5215 100.506 29.6322 101.103 30.3602C101.719 31.0695 102.55 31.4242 103.595 31.4242C105.219 31.4242 106.19 30.5935 106.507 28.9322L109.979 30.0522C109.662 31.3028 108.952 32.3202 107.851 33.1042C106.768 33.8882 105.359 34.2802 103.623 34.2802C102.167 34.2802 100.888 33.9908 99.787 33.4122C98.7044 32.8335 97.8644 32.0028 97.267 30.9202C96.6697 29.8375 96.371 28.5308 96.371 27.0002C96.371 25.4695 96.6697 24.1628 97.267 23.0802C97.883 21.9975 98.723 21.1668 99.787 20.5882C100.87 20.0095 102.111 19.7202 103.511 19.7202Z" fill="#0D0D0D"/>
<path d="M119.344 19.7202C120.744 19.7202 121.985 20.0095 123.068 20.5882C124.15 21.1668 124.99 21.9975 125.588 23.0802C126.204 24.1628 126.512 25.4695 126.512 27.0002C126.512 28.5308 126.204 29.8375 125.588 30.9202C124.99 32.0028 124.15 32.8335 123.068 33.4122C121.985 33.9908 120.744 34.2802 119.344 34.2802C117.925 34.2802 116.674 33.9908 115.592 33.4122C114.528 32.8335 113.688 32.0028 113.072 30.9202C112.474 29.8375 112.176 28.5308 112.176 27.0002C112.176 25.4695 112.474 24.1628 113.072 23.0802C113.688 21.9975 114.528 21.1668 115.592 20.5882C116.674 20.0095 117.925 19.7202 119.344 19.7202ZM119.344 22.5762C118.298 22.5762 117.477 22.9495 116.88 23.6962C116.301 24.4242 116.012 25.5255 116.012 27.0002C116.012 28.4748 116.301 29.5855 116.88 30.3322C117.477 31.0602 118.298 31.4242 119.344 31.4242C120.37 31.4242 121.173 31.0602 121.752 30.3322C122.349 29.5855 122.648 28.4748 122.648 27.0002C122.648 25.5255 122.349 24.4242 121.752 23.6962C121.173 22.9495 120.37 22.5762 119.344 22.5762Z" fill="#0D0D0D"/>
<path d="M136.105 19.7202C137.505 19.7202 138.747 20.0095 139.829 20.5882C140.912 21.1668 141.752 21.9975 142.349 23.0802C142.965 24.1628 143.273 25.4695 143.273 27.0002C143.273 28.5308 142.965 29.8375 142.349 30.9202C141.752 32.0028 140.912 32.8335 139.829 33.4122C138.747 33.9908 137.505 34.2802 136.105 34.2802C134.687 34.2802 133.436 33.9908 132.353 33.4122C131.289 32.8335 130.449 32.0028 129.833 30.9202C129.236 29.8375 128.937 28.5308 128.937 27.0002C128.937 25.4695 129.236 24.1628 129.833 23.0802C130.449 21.9975 131.289 21.1668 132.353 20.5882C133.436 20.0095 134.687 19.7202 136.105 19.7202ZM136.105 22.5762C135.06 22.5762 134.239 22.9495 133.641 23.6962C133.063 24.4242 132.773 25.5255 132.773 27.0002C132.773 28.4748 133.063 29.5855 133.641 30.3322C134.239 31.0602 135.06 31.4242 136.105 31.4242C137.132 31.4242 137.935 31.0602 138.513 30.3322C139.111 29.5855 139.409 28.4748 139.409 27.0002C139.409 25.5255 139.111 24.4242 138.513 23.6962C137.935 22.9495 137.132 22.5762 136.105 22.5762Z" fill="#0D0D0D"/>
<path d="M150.263 13.8682V29.6882C150.263 30.3415 150.375 30.7988 150.599 31.0602C150.823 31.3215 151.196 31.4522 151.719 31.4522C152.036 31.4522 152.298 31.4335 152.503 31.3962C152.708 31.3588 152.97 31.2842 153.287 31.1722L152.951 33.6922C152.634 33.8788 152.232 34.0188 151.747 34.1122C151.28 34.2242 150.814 34.2802 150.347 34.2802C148.984 34.2802 147.986 33.9535 147.351 33.3002C146.735 32.6282 146.427 31.5642 146.427 30.1082V13.8682H150.263Z" fill="#0D0D0D"/>
<path d="M161.921 34.2802C159.718 34.2802 157.954 33.6455 156.629 32.3762C155.303 31.0882 154.641 29.2962 154.641 27.0002C154.641 25.4695 154.939 24.1628 155.537 23.0802C156.134 21.9975 156.965 21.1668 158.029 20.5882C159.111 20.0095 160.343 19.7202 161.725 19.7202C163.143 19.7202 164.347 20.0095 165.337 20.5882C166.326 21.1482 167.082 21.9228 167.605 22.9122C168.127 23.8828 168.389 24.9935 168.389 26.2442C168.389 26.6175 168.379 26.9722 168.361 27.3082C168.342 27.6442 168.314 27.9428 168.277 28.2042H158.393C158.542 29.2868 158.915 30.0988 159.513 30.6402C160.129 31.1628 160.922 31.4242 161.893 31.4242C162.714 31.4242 163.377 31.2655 163.881 30.9482C164.385 30.6308 164.777 30.1922 165.057 29.6322L168.109 30.8082C167.661 31.9095 166.877 32.7682 165.757 33.3842C164.637 33.9815 163.358 34.2802 161.921 34.2802ZM161.697 22.5482C159.886 22.5482 158.794 23.5468 158.421 25.5442H164.721C164.609 24.5735 164.291 23.8362 163.769 23.3322C163.265 22.8095 162.574 22.5482 161.697 22.5482Z" fill="#0D0D0D"/>
<path d="M177.239 34.2802C175.821 34.2802 174.523 34.0282 173.347 33.5242C172.19 33.0202 171.247 32.3108 170.519 31.3962L172.731 29.1562C173.179 29.8282 173.777 30.3788 174.523 30.8082C175.27 31.2375 176.157 31.4522 177.183 31.4522C177.911 31.4522 178.49 31.3495 178.919 31.1442C179.367 30.9202 179.591 30.5748 179.591 30.1082C179.591 29.8095 179.489 29.5575 179.283 29.3522C179.078 29.1282 178.667 28.9508 178.051 28.8202L175.587 28.3162C173.963 27.9802 172.806 27.4762 172.115 26.8042C171.443 26.1135 171.107 25.2268 171.107 24.1442C171.107 23.3788 171.331 22.6602 171.779 21.9882C172.246 21.3162 172.937 20.7748 173.851 20.3642C174.766 19.9348 175.905 19.7202 177.267 19.7202C180.105 19.7202 182.139 20.5882 183.371 22.3242L181.075 24.5642C180.665 23.9108 180.123 23.4162 179.451 23.0802C178.798 22.7255 178.107 22.5482 177.379 22.5482C175.737 22.5482 174.915 23.0055 174.915 23.9202C174.915 24.2188 175.046 24.4802 175.307 24.7042C175.569 24.9095 176.045 25.0868 176.735 25.2362L179.591 25.8242C180.973 26.1042 181.962 26.5802 182.559 27.2522C183.157 27.9055 183.455 28.6988 183.455 29.6322C183.455 30.9762 182.914 32.0868 181.831 32.9642C180.767 33.8415 179.237 34.2802 177.239 34.2802Z" fill="#0D0D0D"/>
</svg>
