<svg width="48" height="48" viewBox="0 0 48 48" fill="none" xmlns="http://www.w3.org/2000/svg">
<g clip-path="url(#clip0_275_3720)">
<path d="M24 4.5C20.1433 4.5 16.3731 5.64366 13.1664 7.78634C9.95963 9.92903 7.46027 12.9745 5.98436 16.5377C4.50845 20.1008 4.12228 24.0216 4.8747 27.8043C5.62711 31.5869 7.4843 35.0615 10.2114 37.7886C12.9386 40.5157 16.4131 42.3729 20.1957 43.1253C23.9784 43.8777 27.8992 43.4916 31.4623 42.0156C35.0255 40.5397 38.071 38.0404 40.2137 34.8336C42.3564 31.6269 43.5 27.8567 43.5 24C43.4945 18.83 41.4383 13.8732 37.7826 10.2174C34.1268 6.56167 29.1701 4.50546 24 4.5ZM24 40.5C20.7366 40.5 17.5465 39.5323 14.8331 37.7192C12.1197 35.9062 10.0048 33.3293 8.756 30.3143C7.50715 27.2993 7.1804 23.9817 7.81705 20.781C8.45371 17.5803 10.0252 14.6403 12.3327 12.3327C14.6403 10.0252 17.5803 8.4537 20.781 7.81704C23.9817 7.18039 27.2993 7.50714 30.3143 8.75599C33.3293 10.0048 35.9062 12.1197 37.7193 14.8331C39.5323 17.5465 40.5 20.7366 40.5 24C40.495 28.3745 38.7551 32.5685 35.6618 35.6618C32.5685 38.7551 28.3746 40.495 24 40.5ZM33 25.5H37.4138C37.0695 28.5411 35.7036 31.3754 33.5395 33.5395C31.3754 35.7036 28.5411 37.0694 25.5 37.4137V33C25.5 32.6022 25.342 32.2206 25.0607 31.9393C24.7794 31.658 24.3978 31.5 24 31.5C23.6022 31.5 23.2207 31.658 22.9393 31.9393C22.658 32.2206 22.5 32.6022 22.5 33V37.4137C19.4589 37.0694 16.6246 35.7036 14.4605 33.5395C12.2964 31.3754 10.9306 28.5411 10.5863 25.5H15C15.3978 25.5 15.7794 25.342 16.0607 25.0607C16.342 24.7794 16.5 24.3978 16.5 24C16.5 23.6022 16.342 23.2206 16.0607 22.9393C15.7794 22.658 15.3978 22.5 15 22.5H10.5863C10.9306 19.4589 12.2964 16.6246 14.4605 14.4605C16.6246 12.2964 19.4589 10.9306 22.5 10.5862V15C22.5 15.3978 22.658 15.7794 22.9393 16.0607C23.2207 16.342 23.6022 16.5 24 16.5C24.3978 16.5 24.7794 16.342 25.0607 16.0607C25.342 15.7794 25.5 15.3978 25.5 15V10.5862C28.5411 10.9306 31.3754 12.2964 33.5395 14.4605C35.7036 16.6246 37.0695 19.4589 37.4138 22.5H33C32.6022 22.5 32.2207 22.658 31.9393 22.9393C31.658 23.2206 31.5 23.6022 31.5 24C31.5 24.3978 31.658 24.7794 31.9393 25.0607C32.2207 25.342 32.6022 25.5 33 25.5Z" fill="white"/>
</g>
<defs>
<clipPath id="clip0_275_3720">
<rect width="48" height="48" fill="white"/>
</clipPath>
</defs>
</svg>
