<svg width="770" height="315" viewBox="0 0 770 315" fill="none" xmlns="http://www.w3.org/2000/svg">
<path d="M565.716 150.633C560.866 156.267 556.256 161.641 551.673 167.037C547.504 171.946 543.383 176.896 539.208 181.8C532.477 189.709 525.719 197.595 518.922 205.549C520.537 207.214 522.281 206.505 523.804 206.508C547.355 206.559 570.905 206.542 594.456 206.545C600.85 206.545 601.863 207.63 601.839 214.048C601.802 223.656 601.86 233.264 601.838 242.872C601.825 248.263 600.501 249.624 595.138 249.625C538.915 249.64 482.692 249.639 426.469 249.626C422.538 249.625 421.963 249.23 420.91 245.489C419.715 241.245 418.705 236.949 417.459 232.066C416.282 232.879 415.169 233.431 414.328 234.26C403.653 244.775 390.558 250.469 376.072 253.204C371.571 254.054 366.871 254.753 362.35 254.402C354.852 253.82 347.205 253.106 340.011 251.072C322.105 246.008 308.86 234.968 299.967 218.424C295.87 210.8 293.99 202.609 291.826 194.473C290.742 190.398 290.707 185.971 290.686 181.701C290.58 160.673 290.637 139.645 290.637 117.371C289.459 119.19 288.757 119.968 288.394 120.88C283.691 132.701 279.057 144.549 274.363 156.374C271.354 163.955 268.213 171.484 265.243 179.081C261.805 187.878 258.59 196.764 255.099 205.539C249.721 219.056 244.151 232.496 238.738 245.998C233.994 257.828 229.84 269.881 224.008 281.283C217.811 293.4 209.423 303.262 196.74 308.616C191.376 310.88 185.505 312.273 179.726 313.158C166.966 315.113 154.058 315.102 141.169 314.927C136.835 314.868 135.06 313.132 135.085 308.901C135.153 297.807 135.248 286.713 135.422 275.62C135.45 273.877 135.947 272.141 136.264 270.173C139.729 270.173 142.873 270.334 145.994 270.141C153.398 269.682 160.871 269.538 168.167 268.353C174.855 267.267 180.42 263.687 183.59 257.283C184.462 255.522 185.081 253.637 185.935 251.865C188.92 245.671 188.629 240.074 185.021 233.829C180.516 226.031 177.359 217.456 173.595 209.228C170.596 202.669 167.57 196.122 164.537 189.578C159.359 178.407 154.126 167.261 148.991 156.07C144.963 147.292 141.081 138.447 137.066 129.664C135.497 126.23 133.743 122.881 131.958 119.262C116.745 119.262 101.396 119.262 86.318 119.262C86.318 121.573 86.318 123.666 86.318 125.759C86.3177 164.366 86.3174 202.974 86.3171 241.581C86.3171 242.41 86.3482 243.24 86.3107 244.067C86.1312 248.025 84.8242 249.573 80.9698 249.597C66.8731 249.685 52.7753 249.67 38.6784 249.605C35.5765 249.591 34.7664 248.85 34.6272 245.838C34.4903 242.875 34.8703 239.893 34.8561 236.921C34.7766 220.37 34.5934 203.819 34.5468 187.268C34.4897 167.053 34.5231 146.838 34.5455 126.623C34.548 124.346 34.7332 122.07 34.8574 119.255C23.628 119.255 12.7765 119.255 2.37395 119.255C-0.185498 116.644 -0.0595155 113.966 0.0423522 111.327C0.22665 106.552 0.640012 101.781 0.66024 97.0064C0.683809 91.442 0.390901 85.8761 0.230355 80.311C0.166756 78.1069 1.49608 77.0192 3.42263 76.6787C4.71041 76.4512 6.06846 76.6133 7.39505 76.613C16.318 76.6108 25.241 76.6118 34.8724 76.6118C34.8724 74.4618 34.7989 72.7023 34.8851 70.9506C35.2496 63.543 34.531 56.1536 35.6806 48.6957C36.7254 41.9186 38.9194 35.6896 41.934 29.7376C46.4182 20.8837 53.0707 13.8903 61.7326 8.89732C67.6318 5.49691 74.0242 3.28853 80.6544 2.11431C94.3747 -0.3157 108.279 -0.00910471 122.149 0.0365024C124.969 0.0457878 127.79 -0.0231541 130.607 0.0481849C135.048 0.160609 137.288 2.00823 137.35 6.23345C137.502 16.6664 137.451 27.1036 137.363 37.538C137.337 40.6531 135.955 41.7347 132.016 41.7928C125.218 41.893 118.416 41.9118 111.618 41.8023C97.8261 41.5802 87.6508 51.0573 85.337 63.7219C85.0426 65.3329 84.7483 66.9609 84.6741 68.591C84.5624 71.0458 84.645 73.5095 84.645 76.3866C112.725 76.3866 140.51 76.3866 168.838 76.3866C183.595 110.66 198.284 144.775 213.319 179.693C214.193 178.042 214.79 177.179 215.133 176.226C221.877 157.5 228.612 138.771 235.304 120.026C239.869 107.24 244.366 94.4292 248.894 81.6298C250.287 77.6942 251.535 76.6258 255.179 76.6231C282.876 76.6024 310.573 76.6113 338.27 76.6224C338.92 76.6226 339.569 76.7558 340.796 76.8901C341.002 78.5886 341.382 80.3184 341.396 82.0511C341.649 113.338 341.623 144.629 342.212 175.909C342.399 185.873 345.139 195.376 353.418 202.248C356.898 205.137 360.777 207.14 365.197 207.979C374.854 209.81 384.223 209.361 392.695 203.707C400.597 198.434 405.02 190.995 407.244 181.727C409.01 174.369 409.021 167.034 409.041 159.642C409.111 134.456 409.067 109.27 409.069 84.0843C409.069 82.7591 408.995 81.425 409.119 80.1104C409.334 77.8101 410.499 76.4556 413.003 76.6102C413.829 76.6611 414.661 76.6124 415.49 76.6124C474.865 76.6123 534.239 76.6125 593.613 76.6127C594.932 76.6127 596.25 76.6127 598.269 76.6127C598.585 78.537 599.128 80.3712 599.147 82.2109C599.24 90.8261 599.121 99.4438 599.233 108.059C599.262 110.348 598.709 112.166 597.193 113.898C592.305 119.48 587.526 125.158 582.705 130.799C577.126 137.327 571.547 143.854 565.716 150.633ZM512.758 141.94C518.604 134.33 525.705 127.739 531.909 119.412C507.514 119.412 484.128 119.412 460.561 119.412C460.561 146.716 460.561 173.643 460.561 200.917C463.302 200.05 464.646 197.962 466.197 196.129C470.997 190.454 475.747 184.736 480.609 179.114C487.846 170.747 495.175 162.459 502.438 154.114C505.776 150.279 509.051 146.389 512.758 141.94Z" fill="url(#paint0_linear_466_873)"/>
<path d="M738.34 193.925C747.203 194.29 755.65 193.041 764.365 194.982C764.224 196.478 764.466 197.922 763.926 198.958C761.048 204.476 758.665 210.282 754.398 215.008C751.441 218.283 748.855 221.893 745.89 225.159C737.785 234.087 728.072 240.868 716.963 245.467C706.176 249.933 695.135 253.445 683.188 253.365C677.468 253.326 671.756 253.665 666.008 253.457C657.02 253.132 648.417 251.244 640.064 248.184C629.656 244.37 620.124 239.143 611.705 231.668C603.161 224.084 596.271 215.348 591.507 205.145C588.423 198.539 586.121 191.427 584.529 184.304C582.961 177.287 582.07 169.969 582.095 162.787C582.122 155.435 583.265 148.026 584.556 140.755C586.725 128.539 592.131 117.533 599.255 107.533C607.023 96.6271 617.528 88.7654 629.346 82.4854C637.859 77.9616 646.907 75.1524 656.261 73.4674C664.818 71.926 673.532 70.7879 682.262 71.6936C688.277 72.3177 694.266 73.391 700.197 74.6038C708.945 76.3923 716.948 80.1459 724.705 84.4799C736.297 90.9567 745.577 99.838 752.569 111.093C754.638 114.424 756.687 117.796 758.377 121.326C762.269 129.453 764.826 137.969 766.554 146.873C768.198 155.349 769.099 163.784 769.045 172.37C769.011 177.914 768.26 178.585 762.79 178.085C761.637 177.979 760.469 178.037 759.308 178.037C719.5 178.036 679.692 178.034 639.884 178.049C637.95 178.05 636.015 178.196 633.871 178.284C635.774 191.41 643.007 200.482 653.447 206.72C658.019 209.452 663.864 210.241 669.242 211.403C678.154 213.328 686.756 211.012 695.233 208.559C701.73 206.68 706.901 202.573 711.3 197.594C713.554 195.044 715.908 193.708 719.434 193.854C725.56 194.108 731.705 193.925 738.34 193.925ZM676.146 114.079C668.34 113.803 660.994 115.305 653.992 118.972C647.825 122.202 643.081 126.884 639.275 132.469C636.809 136.086 634.841 140.14 634.593 145.22C639.99 145.22 645.248 145.22 650.506 145.22C665.581 145.219 680.655 145.218 695.729 145.217C701.861 145.217 707.994 145.284 714.124 145.172C715.557 145.146 716.98 144.52 718.896 144.05C716.539 139.412 714.71 135.412 712.531 131.612C708.785 125.079 702.838 120.637 696.282 117.632C690.393 114.934 683.86 113.327 676.146 114.079Z" fill="url(#paint1_linear_466_873)"/>
<defs>
<linearGradient id="paint0_linear_466_873" x1="540.519" y1="315" x2="228.529" y2="-8.8976e-06" gradientUnits="userSpaceOnUse">
<stop stop-color="#FC7439"/>
<stop offset="0.5" stop-color="#ED4D1E"/>
<stop offset="1" stop-color="#FF853F"/>
</linearGradient>
<linearGradient id="paint1_linear_466_873" x1="540.519" y1="315" x2="228.529" y2="-8.8976e-06" gradientUnits="userSpaceOnUse">
<stop stop-color="#FC7439"/>
<stop offset="0.5" stop-color="#ED4D1E"/>
<stop offset="1" stop-color="#FF853F"/>
</linearGradient>
</defs>
</svg>
