<svg width="126" height="32" viewBox="0 0 126 32" fill="none" xmlns="http://www.w3.org/2000/svg">
<path fill-rule="evenodd" clip-rule="evenodd" d="M15.5837 24.3113C20.1738 24.3113 23.8948 20.5903 23.8948 16.0002C23.8948 11.4101 20.1738 7.68905 15.5837 7.68905C10.9936 7.68905 7.27255 11.4101 7.27255 16.0002C7.27255 20.5903 10.9936 24.3113 15.5837 24.3113ZM15.5837 30.6668C23.6838 30.6668 30.2503 24.1003 30.2503 16.0002C30.2503 7.89999 23.6838 1.3335 15.5837 1.3335C7.48348 1.3335 0.916992 7.89999 0.916992 16.0002C0.916992 24.1003 7.48348 30.6668 15.5837 30.6668Z" fill="#828282"/>
<path d="M15.751 16.3212C17.2784 14.7939 19.7548 14.7939 21.2822 16.3212L28.8875 23.9266C30.4149 25.4539 30.4149 27.9303 28.8875 29.4577C27.3601 30.9851 24.8837 30.9851 23.3564 29.4577L15.751 21.8524C14.2236 20.325 14.2236 17.8486 15.751 16.3212Z" fill="#828282"/>
<path d="M17.8867 23.9879L22.7169 28.8181C25.0337 27.526 26.9639 25.624 28.2904 23.3292L23.4997 18.5386C22.6582 21.1648 20.5461 23.2224 17.8867 23.9879Z" fill="#828282"/>
<path d="M53.9305 24.0667C53.5074 24.5894 52.991 24.9876 52.3812 25.2614C51.7838 25.5352 51.1243 25.6721 50.4025 25.6721C49.4318 25.6721 48.5545 25.4605 47.7705 25.0374C46.9865 24.6267 46.0905 23.8925 45.0825 22.8347C43.9003 22.6854 42.8425 22.3059 41.9092 21.6961C40.9883 21.0863 40.2665 20.3023 39.7438 19.3441C39.2336 18.3734 38.9785 17.3032 38.9785 16.1334C38.9785 14.8516 39.2834 13.7005 39.8932 12.6801C40.5154 11.6472 41.3678 10.8383 42.4505 10.2534C43.5456 9.66852 44.7714 9.37608 46.1278 9.37608C47.4843 9.37608 48.7038 9.66852 49.7865 10.2534C50.8692 10.8383 51.7216 11.6472 52.3438 12.6801C52.9661 13.7005 53.2772 14.8516 53.2772 16.1334C53.2772 17.6516 52.8478 18.9832 51.9892 20.1281C51.143 21.273 50.0167 22.0694 48.6105 22.5174C48.9216 22.841 49.2203 23.0712 49.5065 23.2081C49.8052 23.3574 50.1225 23.4321 50.4585 23.4321C51.2674 23.4321 51.9767 23.1085 52.5865 22.4614L53.9305 24.0667ZM42.0398 16.1334C42.0398 16.9423 42.2141 17.6641 42.5625 18.2987C42.9234 18.9334 43.415 19.4312 44.0372 19.7921C44.6594 20.1405 45.3563 20.3147 46.1278 20.3147C46.8994 20.3147 47.5963 20.1405 48.2185 19.7921C48.8407 19.4312 49.3261 18.9334 49.6745 18.2987C50.0354 17.6641 50.2158 16.9423 50.2158 16.1334C50.2158 15.3245 50.0354 14.6027 49.6745 13.9681C49.3261 13.3334 48.8407 12.8419 48.2185 12.4934C47.5963 12.1325 46.8994 11.9521 46.1278 11.9521C45.3563 11.9521 44.6594 12.1325 44.0372 12.4934C43.415 12.8419 42.9234 13.3334 42.5625 13.9681C42.2141 14.6027 42.0398 15.3245 42.0398 16.1334Z" fill="#0D0D0D"/>
<path d="M65.4618 12.6241V22.6667H62.6992V21.4721C62.3134 21.9076 61.853 22.2436 61.3179 22.4801C60.7827 22.7041 60.2041 22.8161 59.5819 22.8161C58.2627 22.8161 57.2174 22.4365 56.4458 21.6774C55.6743 20.9183 55.2885 19.7921 55.2885 18.2987V12.6241H58.2005V17.8694C58.2005 19.4872 58.8787 20.2961 60.2352 20.2961C60.9321 20.2961 61.4921 20.0721 61.9152 19.6241C62.3383 19.1636 62.5498 18.4854 62.5498 17.5894V12.6241H65.4618Z" fill="#0D0D0D"/>
<path d="M72.9383 22.8161C71.8805 22.8161 70.9285 22.5983 70.0823 22.1627C69.2485 21.7147 68.5952 21.0987 68.1223 20.3147C67.6494 19.5307 67.413 18.641 67.413 17.6454C67.413 16.6499 67.6494 15.7601 68.1223 14.9761C68.5952 14.1921 69.2485 13.5823 70.0823 13.1467C70.9285 12.6987 71.8805 12.4747 72.9383 12.4747C73.9961 12.4747 74.9418 12.6987 75.7756 13.1467C76.6094 13.5823 77.2627 14.1921 77.7356 14.9761C78.2085 15.7601 78.445 16.6499 78.445 17.6454C78.445 18.641 78.2085 19.5307 77.7356 20.3147C77.2627 21.0987 76.6094 21.7147 75.7756 22.1627C74.9418 22.5983 73.9961 22.8161 72.9383 22.8161ZM72.9383 20.4267C73.685 20.4267 74.2947 20.1779 74.7676 19.6801C75.253 19.1699 75.4956 18.4916 75.4956 17.6454C75.4956 16.7992 75.253 16.1272 74.7676 15.6294C74.2947 15.1192 73.685 14.8641 72.9383 14.8641C72.1916 14.8641 71.5756 15.1192 71.0903 15.6294C70.605 16.1272 70.3623 16.7992 70.3623 17.6454C70.3623 18.4916 70.605 19.1699 71.0903 19.6801C71.5756 20.1779 72.1916 20.4267 72.9383 20.4267Z" fill="#0D0D0D"/>
<path d="M86.8687 22.1814C86.5825 22.393 86.2278 22.5547 85.8047 22.6667C85.3941 22.7663 84.9585 22.8161 84.4981 22.8161C83.3034 22.8161 82.3763 22.5112 81.7167 21.9014C81.0696 21.2916 80.7461 20.3956 80.7461 19.2134V15.0881H79.1967V12.8481H80.7461V10.4027H83.6581V12.8481H86.1594V15.0881H83.6581V19.1761C83.6581 19.5992 83.7638 19.929 83.9754 20.1654C84.1994 20.3894 84.5105 20.5014 84.9087 20.5014C85.3692 20.5014 85.7612 20.377 86.0847 20.1281L86.8687 22.1814Z" fill="#0D0D0D"/>
<path d="M88.5034 12.6241H91.4154V22.6667H88.5034V12.6241ZM89.9594 11.2241C89.4243 11.2241 88.9887 11.0685 88.6527 10.7574C88.3167 10.4463 88.1487 10.0605 88.1487 9.60007C88.1487 9.13963 88.3167 8.75385 88.6527 8.44274C88.9887 8.13163 89.4243 7.97607 89.9594 7.97607C90.4945 7.97607 90.93 8.12541 91.266 8.42408C91.602 8.72274 91.77 9.09608 91.77 9.54408C91.77 10.0294 91.602 10.4339 91.266 10.7574C90.93 11.0685 90.4945 11.2241 89.9594 11.2241Z" fill="#0D0D0D"/>
<path d="M103.955 17.6827C103.955 17.7201 103.937 17.9814 103.899 18.4667H96.3019C96.4388 19.089 96.7624 19.5805 97.2726 19.9414C97.7828 20.3023 98.4175 20.4827 99.1766 20.4827C99.6993 20.4827 100.16 20.4081 100.558 20.2587C100.969 20.097 101.348 19.8481 101.697 19.5121L103.246 21.1921C102.3 22.2747 100.919 22.8161 99.1019 22.8161C97.9695 22.8161 96.9677 22.5983 96.0966 22.1627C95.2255 21.7147 94.5535 21.0987 94.0806 20.3147C93.6077 19.5307 93.3713 18.641 93.3713 17.6454C93.3713 16.6623 93.6015 15.7787 94.0619 14.9947C94.5348 14.1983 95.1757 13.5823 95.9846 13.1467C96.806 12.6987 97.7206 12.4747 98.7286 12.4747C99.7117 12.4747 100.602 12.6863 101.398 13.1094C102.194 13.5325 102.817 14.1423 103.265 14.9387C103.725 15.7227 103.955 16.6374 103.955 17.6827ZM98.7473 14.6774C98.0877 14.6774 97.534 14.8641 97.0859 15.2374C96.638 15.6107 96.3642 16.121 96.2646 16.7681H101.211C101.112 16.1334 100.838 15.6294 100.39 15.2561C99.9419 14.8703 99.3944 14.6774 98.7473 14.6774Z" fill="#0D0D0D"/>
<path d="M111.998 12.4747C113.242 12.4747 114.244 12.8481 115.003 13.5947C115.775 14.3414 116.161 15.449 116.161 16.9174V22.6667H113.249V17.3654C113.249 16.569 113.074 15.9779 112.726 15.5921C112.378 15.1939 111.874 14.9947 111.214 14.9947C110.48 14.9947 109.895 15.225 109.459 15.6854C109.024 16.1334 108.806 16.8054 108.806 17.7014V22.6667H105.894V12.6241H108.675V13.8001C109.061 13.377 109.54 13.0534 110.113 12.8294C110.685 12.593 111.314 12.4747 111.998 12.4747Z" fill="#0D0D0D"/>
<path d="M125.278 22.1814C124.991 22.393 124.637 22.5547 124.214 22.6667C123.803 22.7663 123.367 22.8161 122.907 22.8161C121.712 22.8161 120.785 22.5112 120.126 21.9014C119.478 21.2916 119.155 20.3956 119.155 19.2134V15.0881H117.606V12.8481H119.155V10.4027H122.067V12.8481H124.568V15.0881H122.067V19.1761C122.067 19.5992 122.173 19.929 122.384 20.1654C122.608 20.3894 122.919 20.5014 123.318 20.5014C123.778 20.5014 124.17 20.377 124.494 20.1281L125.278 22.1814Z" fill="#0D0D0D"/>
</svg>
