<svg width="98" height="32" viewBox="0 0 98 32" fill="none" xmlns="http://www.w3.org/2000/svg">
<path d="M9.26916 14.879C9.81733 12.8335 11.9199 10.7309 13.9654 10.1827L26.7181 6.76516C28.7636 6.21698 29.9774 7.43081 29.4293 9.47632L26.0117 22.229C25.4635 24.2745 23.3609 26.3771 21.3154 26.9253L8.56275 30.3428C6.51723 30.891 5.3034 29.6772 5.85158 27.6317L9.26916 14.879Z" fill="#828282"/>
<path d="M4.15588 9.76623C4.70405 7.72071 6.80665 5.61812 8.85217 5.06994L21.6048 1.65236C23.6503 1.10418 24.8642 2.31801 24.316 4.36353L20.8984 17.1162C20.3502 19.1617 18.2476 21.2643 16.2021 21.8125L3.44947 25.23C1.40396 25.7782 0.190123 24.5644 0.738299 22.5189L4.15588 9.76623Z" fill="#828282"/>
<path d="M41.2784 20.9494H45.6651V22.6667H39.1504V9.69336H41.2784V20.9494Z" fill="#0D0D0D"/>
<path d="M46.7353 17.4774C46.7353 16.4445 46.9469 15.5298 47.37 14.7334C47.8055 13.9369 48.3904 13.3209 49.1247 12.8854C49.8713 12.4374 50.6927 12.2134 51.5887 12.2134C52.3975 12.2134 53.1007 12.3751 53.698 12.6987C54.3078 13.0098 54.7931 13.4018 55.154 13.8747V12.3814H57.3007V22.6667H55.154V21.136C54.7931 21.6214 54.3015 22.0258 53.6793 22.3494C53.0571 22.6729 52.3478 22.8347 51.5513 22.8347C50.6678 22.8347 49.8589 22.6107 49.1247 22.1627C48.3904 21.7022 47.8055 21.0676 47.37 20.2587C46.9469 19.4374 46.7353 18.5102 46.7353 17.4774ZM55.154 17.5147C55.154 16.8054 55.0047 16.1894 54.706 15.6667C54.4198 15.144 54.0402 14.7458 53.5673 14.472C53.0944 14.1982 52.5842 14.0614 52.0367 14.0614C51.4891 14.0614 50.9789 14.1982 50.506 14.472C50.0331 14.7334 49.6473 15.1254 49.3487 15.648C49.0624 16.1582 48.9193 16.768 48.9193 17.4774C48.9193 18.1867 49.0624 18.8089 49.3487 19.344C49.6473 19.8791 50.0331 20.2898 50.506 20.576C50.9913 20.8498 51.5015 20.9867 52.0367 20.9867C52.5842 20.9867 53.0944 20.8498 53.5673 20.576C54.0402 20.3022 54.4198 19.904 54.706 19.3814C55.0047 18.8462 55.154 18.224 55.154 17.5147Z" fill="#0D0D0D"/>
<path d="M69.3544 12.3814L63.045 27.5014H60.8424L62.933 22.4987L58.8824 12.3814H61.253L64.1464 20.2214L67.1517 12.3814H69.3544Z" fill="#0D0D0D"/>
<path d="M80.3869 17.272C80.3869 17.6578 80.3621 18.0062 80.3123 18.3174H72.4536C72.5158 19.1387 72.8207 19.7982 73.3683 20.296C73.9158 20.7938 74.5878 21.0427 75.3843 21.0427C76.5292 21.0427 77.3381 20.5636 77.8109 19.6054H80.1069C79.7958 20.5511 79.2296 21.3289 78.4083 21.9387C77.5994 22.536 76.5914 22.8347 75.3843 22.8347C74.4012 22.8347 73.5176 22.6169 72.7336 22.1814C71.9621 21.7334 71.3523 21.1111 70.9043 20.3147C70.4687 19.5058 70.2509 18.5725 70.2509 17.5147C70.2509 16.4569 70.4625 15.5298 70.8856 14.7334C71.3212 13.9245 71.9247 13.3022 72.6963 12.8667C73.4803 12.4311 74.3763 12.2134 75.3843 12.2134C76.3549 12.2134 77.2198 12.4249 77.9789 12.848C78.7381 13.2711 79.3292 13.8685 79.7523 14.64C80.1754 15.3991 80.3869 16.2765 80.3869 17.272ZM78.1656 16.6C78.1532 15.816 77.8732 15.1876 77.3256 14.7147C76.7781 14.2418 76.0998 14.0054 75.2909 14.0054C74.5567 14.0054 73.9283 14.2418 73.4056 14.7147C72.8829 15.1751 72.5718 15.8036 72.4723 16.6H78.1656Z" fill="#0D0D0D"/>
<path d="M84.6091 13.8747C84.9202 13.352 85.3309 12.9476 85.8411 12.6614C86.3638 12.3627 86.9798 12.2134 87.6891 12.2134V14.416H87.1478C86.314 14.416 85.6793 14.6276 85.2438 15.0507C84.8207 15.4738 84.6091 16.208 84.6091 17.2534V22.6667H82.4811V12.3814H84.6091V13.8747Z" fill="#0D0D0D"/>
<path d="M93.3785 22.8347C92.5696 22.8347 91.8416 22.6916 91.1945 22.4054C90.5598 22.1067 90.0558 21.7085 89.6825 21.2107C89.3092 20.7005 89.1101 20.1342 89.0852 19.512H91.2878C91.3252 19.9476 91.5305 20.3147 91.9038 20.6134C92.2896 20.8996 92.7687 21.0427 93.3412 21.0427C93.9385 21.0427 94.3989 20.9307 94.7225 20.7067C95.0585 20.4702 95.2265 20.1716 95.2265 19.8107C95.2265 19.4249 95.0398 19.1387 94.6665 18.952C94.3056 18.7654 93.7269 18.56 92.9305 18.336C92.1589 18.1245 91.5305 17.9191 91.0452 17.72C90.5598 17.5209 90.1367 17.216 89.7758 16.8054C89.4274 16.3947 89.2532 15.8534 89.2532 15.1814C89.2532 14.6338 89.4149 14.136 89.7385 13.688C90.0621 13.2276 90.5225 12.8667 91.1198 12.6054C91.7296 12.344 92.4265 12.2134 93.2105 12.2134C94.3803 12.2134 95.3198 12.512 96.0292 13.1094C96.7509 13.6942 97.1367 14.4969 97.1865 15.5174H95.0585C95.0212 15.0569 94.8345 14.6898 94.4985 14.416C94.1625 14.1422 93.7083 14.0054 93.1358 14.0054C92.5758 14.0054 92.1465 14.1111 91.8478 14.3227C91.5492 14.5342 91.3998 14.8142 91.3998 15.1627C91.3998 15.4365 91.4994 15.6667 91.6985 15.8534C91.8976 16.04 92.1403 16.1894 92.4265 16.3014C92.7127 16.4009 93.1358 16.5316 93.6958 16.6934C94.4425 16.8925 95.0523 17.0978 95.5252 17.3094C96.0105 17.5085 96.4274 17.8071 96.7758 18.2054C97.1243 18.6036 97.3047 19.1325 97.3172 19.792C97.3172 20.3769 97.1554 20.8996 96.8318 21.36C96.5083 21.8205 96.0478 22.1814 95.4505 22.4427C94.8656 22.704 94.1749 22.8347 93.3785 22.8347Z" fill="#0D0D0D"/>
</svg>
