<svg width="142" height="40" viewBox="0 0 142 40" fill="none" xmlns="http://www.w3.org/2000/svg">
<rect x="0.75" y="16" width="7.99999" height="7.99999" fill="#828282"/>
<rect x="24.75" y="24" width="8" height="7.99999" transform="rotate(180 24.75 24)" fill="#828282"/>
<path d="M8.75 16L16.75 8V16L8.75 24V16Z" fill="#828282"/>
<path d="M16.75 24L8.75001 32L8.75001 24L16.75 16L16.75 24Z" fill="#828282"/>
<path d="M0.75 16L16.75 0V7.99999L8.74999 16H0.75Z" fill="#828282"/>
<path d="M24.75 24L8.75002 40L8.75002 32L16.75 24L24.75 24Z" fill="#828282"/>
<path d="M42.1734 28.5665C40.9134 28.5665 39.6923 28.3876 38.5101 28.0298C37.3434 27.672 36.4178 27.1976 35.7334 26.6065L36.7834 24.2498C37.4523 24.7787 38.269 25.2143 39.2334 25.5565C40.2134 25.8832 41.1934 26.0465 42.1734 26.0465C43.3867 26.0465 44.2889 25.852 44.8801 25.4632C45.4867 25.0743 45.7901 24.5609 45.7901 23.9232C45.7901 23.4565 45.619 23.0754 45.2767 22.7798C44.9501 22.4687 44.5301 22.2276 44.0167 22.0565C43.5034 21.8854 42.8034 21.6909 41.9167 21.4732C40.6723 21.1776 39.6612 20.882 38.8834 20.5865C38.1212 20.2909 37.4601 19.832 36.9001 19.2098C36.3556 18.572 36.0834 17.7165 36.0834 16.6432C36.0834 15.7409 36.3245 14.9243 36.8067 14.1932C37.3045 13.4465 38.0434 12.8554 39.0234 12.4198C40.019 11.9843 41.2323 11.7665 42.6634 11.7665C43.659 11.7665 44.639 11.8909 45.6034 12.1398C46.5678 12.3887 47.4001 12.7465 48.1001 13.2132L47.1434 15.5698C46.4278 15.1498 45.6812 14.8309 44.9034 14.6132C44.1256 14.3954 43.3712 14.2865 42.6401 14.2865C41.4423 14.2865 40.5478 14.4887 39.9567 14.8932C39.3812 15.2976 39.0934 15.8343 39.0934 16.5032C39.0934 16.9698 39.2567 17.3509 39.5834 17.6465C39.9256 17.942 40.3534 18.1754 40.8667 18.3465C41.3801 18.5176 42.0801 18.712 42.9667 18.9298C44.1801 19.2098 45.1756 19.5054 45.9534 19.8165C46.7312 20.112 47.3923 20.5709 47.9367 21.1932C48.4967 21.8154 48.7767 22.6554 48.7767 23.7132C48.7767 24.6154 48.5278 25.432 48.0301 26.1632C47.5478 26.8943 46.8089 27.4776 45.8134 27.9132C44.8178 28.3487 43.6045 28.5665 42.1734 28.5665Z" fill="#0D0D0D"/>
<path d="M51.5045 15.8732H54.4212V28.3332H51.5045V15.8732ZM52.9745 13.8198C52.4456 13.8198 52.0023 13.6565 51.6445 13.3298C51.2868 12.9876 51.1079 12.5676 51.1079 12.0698C51.1079 11.572 51.2868 11.1598 51.6445 10.8332C52.0023 10.4909 52.4456 10.3198 52.9745 10.3198C53.5034 10.3198 53.9468 10.4832 54.3045 10.8098C54.6623 11.1209 54.8412 11.5176 54.8412 11.9998C54.8412 12.5132 54.6623 12.9487 54.3045 13.3065C53.9623 13.6487 53.519 13.8198 52.9745 13.8198Z" fill="#0D0D0D"/>
<path d="M62.0993 28.4965C61.0882 28.4965 60.1004 28.3643 59.136 28.0998C58.1715 27.8354 57.4015 27.5009 56.826 27.0965L57.946 24.8798C58.506 25.2532 59.1749 25.5565 59.9527 25.7898C60.746 26.0076 61.5238 26.1165 62.286 26.1165C64.0282 26.1165 64.8993 25.6576 64.8993 24.7398C64.8993 24.3043 64.6738 24.0009 64.2227 23.8298C63.7871 23.6587 63.0793 23.4954 62.0993 23.3398C61.0727 23.1843 60.2327 23.0054 59.5793 22.8032C58.9415 22.6009 58.3815 22.2509 57.8993 21.7532C57.4327 21.2398 57.1993 20.532 57.1993 19.6298C57.1993 18.4476 57.6893 17.5065 58.6693 16.8065C59.6649 16.0909 61.0027 15.7332 62.6827 15.7332C63.5382 15.7332 64.3938 15.8343 65.2493 16.0365C66.1049 16.2232 66.8049 16.4798 67.3493 16.8065L66.2293 19.0232C65.1715 18.4009 63.9815 18.0898 62.6593 18.0898C61.8038 18.0898 61.1504 18.222 60.6993 18.4865C60.2638 18.7354 60.046 19.0698 60.046 19.4898C60.046 19.9565 60.2793 20.2909 60.746 20.4932C61.2282 20.6798 61.9671 20.8587 62.9627 21.0298C63.9582 21.1854 64.7749 21.3643 65.4127 21.5665C66.0504 21.7687 66.5949 22.1109 67.046 22.5932C67.5127 23.0754 67.746 23.7598 67.746 24.6465C67.746 25.8132 67.2404 26.7465 66.2293 27.4465C65.2182 28.1465 63.8415 28.4965 62.0993 28.4965Z" fill="#0D0D0D"/>
<path d="M81.6966 15.8732L75.8633 29.3365C75.3188 30.6898 74.6577 31.6387 73.8799 32.1832C73.1021 32.7432 72.161 33.0232 71.0566 33.0232C70.4344 33.0232 69.8199 32.922 69.2133 32.7198C68.6066 32.5176 68.1088 32.2376 67.7199 31.8798L68.8866 29.7332C69.1666 29.9976 69.4933 30.2076 69.8666 30.3632C70.2555 30.5187 70.6444 30.5965 71.0333 30.5965C71.5466 30.5965 71.9666 30.4643 72.2933 30.1998C72.6355 29.9354 72.9466 29.492 73.2266 28.8698L73.4366 28.3798L67.9999 15.8732H71.0333L74.9533 25.0898L78.8966 15.8732H81.6966Z" fill="#0D0D0D"/>
<path d="M90.4262 15.7332C91.6395 15.7332 92.7206 15.9976 93.6695 16.5265C94.6339 17.0554 95.3884 17.802 95.9328 18.7665C96.4773 19.7309 96.7495 20.8432 96.7495 22.1032C96.7495 23.3632 96.4773 24.4832 95.9328 25.4632C95.3884 26.4276 94.6339 27.1743 93.6695 27.7032C92.7206 28.232 91.6395 28.4965 90.4262 28.4965C88.7462 28.4965 87.4162 27.9365 86.4362 26.8165V32.8598H83.5195V15.8732H86.2962V17.5065C86.7784 16.9154 87.3695 16.472 88.0695 16.1765C88.785 15.8809 89.5706 15.7332 90.4262 15.7332ZM90.0995 25.9998C91.1728 25.9998 92.0517 25.642 92.7362 24.9265C93.4362 24.2109 93.7862 23.2698 93.7862 22.1032C93.7862 20.9365 93.4362 19.9954 92.7362 19.2798C92.0517 18.5643 91.1728 18.2065 90.0995 18.2065C89.3995 18.2065 88.7695 18.3698 88.2095 18.6965C87.6495 19.0076 87.2062 19.4587 86.8795 20.0498C86.5528 20.6409 86.3895 21.3254 86.3895 22.1032C86.3895 22.8809 86.5528 23.5654 86.8795 24.1565C87.2062 24.7476 87.6495 25.2065 88.2095 25.5332C88.7695 25.8443 89.3995 25.9998 90.0995 25.9998Z" fill="#0D0D0D"/>
<path d="M106.586 15.7332C108.157 15.7332 109.417 16.192 110.366 17.1098C111.314 18.0276 111.789 19.3887 111.789 21.1932V28.3332H108.872V21.5665C108.872 20.4776 108.616 19.6609 108.102 19.1165C107.589 18.5565 106.858 18.2765 105.909 18.2765C104.836 18.2765 103.988 18.6032 103.366 19.2565C102.743 19.8943 102.432 20.8198 102.432 22.0332V28.3332H99.5156V11.0198H102.432V17.3198C102.914 16.8065 103.506 16.4176 104.206 16.1532C104.921 15.8732 105.714 15.7332 106.586 15.7332Z" fill="#0D0D0D"/>
<path d="M127.552 15.8732V28.3332H124.776V26.7465C124.309 27.3065 123.726 27.742 123.026 28.0532C122.326 28.3487 121.571 28.4965 120.762 28.4965C119.098 28.4965 117.783 28.0376 116.819 27.1198C115.87 26.1865 115.396 24.8098 115.396 22.9898V15.8732H118.312V22.5932C118.312 23.7132 118.561 24.5532 119.059 25.1132C119.572 25.6576 120.296 25.9298 121.229 25.9298C122.271 25.9298 123.096 25.6109 123.702 24.9732C124.324 24.3198 124.636 23.3865 124.636 22.1732V15.8732H127.552Z" fill="#0D0D0D"/>
<path d="M135.221 28.4965C134.21 28.4965 133.222 28.3643 132.258 28.0998C131.293 27.8354 130.523 27.5009 129.948 27.0965L131.068 24.8798C131.628 25.2532 132.297 25.5565 133.074 25.7898C133.868 26.0076 134.645 26.1165 135.408 26.1165C137.15 26.1165 138.021 25.6576 138.021 24.7398C138.021 24.3043 137.795 24.0009 137.344 23.8298C136.909 23.6587 136.201 23.4954 135.221 23.3398C134.194 23.1843 133.354 23.0054 132.701 22.8032C132.063 22.6009 131.503 22.2509 131.021 21.7532C130.554 21.2398 130.321 20.532 130.321 19.6298C130.321 18.4476 130.811 17.5065 131.791 16.8065C132.787 16.0909 134.124 15.7332 135.804 15.7332C136.66 15.7332 137.515 15.8343 138.371 16.0365C139.227 16.2232 139.927 16.4798 140.471 16.8065L139.351 19.0232C138.293 18.4009 137.103 18.0898 135.781 18.0898C134.925 18.0898 134.272 18.222 133.821 18.4865C133.385 18.7354 133.168 19.0698 133.168 19.4898C133.168 19.9565 133.401 20.2909 133.868 20.4932C134.35 20.6798 135.089 20.8587 136.084 21.0298C137.08 21.1854 137.897 21.3643 138.534 21.5665C139.172 21.7687 139.717 22.1109 140.168 22.5932C140.634 23.0754 140.868 23.7598 140.868 24.6465C140.868 25.8132 140.362 26.7465 139.351 27.4465C138.34 28.1465 136.963 28.4965 135.221 28.4965Z" fill="#0D0D0D"/>
</svg>
